<?xml version="1.0" encoding="UTF-8" standalone="no"?>
<!-- Created with Inkscape (http://www.inkscape.org/) -->

<svg
   xmlns:dc="http://purl.org/dc/elements/1.1/"
   xmlns:cc="http://creativecommons.org/ns#"
   xmlns:rdf="http://www.w3.org/1999/02/22-rdf-syntax-ns#"
   xmlns:svg="http://www.w3.org/2000/svg"
   xmlns="http://www.w3.org/2000/svg"
   xmlns:sodipodi="http://sodipodi.sourceforge.net/DTD/sodipodi-0.dtd"
   xmlns:inkscape="http://www.inkscape.org/namespaces/inkscape"
   width="210mm"
   height="297mm"
   id="svg2"
   version="1.1"
   inkscape:version="0.48.1 "
   sodipodi:docname="yingyang.svg">
  <defs
     id="defs4" />
  <sodipodi:namedview
     id="base"
     pagecolor="#ffffff"
     bordercolor="#666666"
     borderopacity="1.0"
     inkscape:pageopacity="0.0"
     inkscape:pageshadow="2"
     inkscape:zoom="0.28063202"
     inkscape:cx="136.26578"
     inkscape:cy="500.14853"
     inkscape:document-units="px"
     inkscape:current-layer="layer1"
     showgrid="false"
     inkscape:window-width="1366"
     inkscape:window-height="706"
     inkscape:window-x="-8"
     inkscape:window-y="-8"
     inkscape:window-maximized="1"
     showguides="true"
     inkscape:guide-bbox="true" />
  <metadata
     id="metadata7">
    <rdf:RDF>
      <cc:Work
         rdf:about="">
        <dc:format>image/svg+xml</dc:format>
        <dc:type
           rdf:resource="http://purl.org/dc/dcmitype/StillImage" />
        <dc:title />
      </cc:Work>
    </rdf:RDF>
  </metadata>
  <g
     inkscape:label="Capa 1"
     inkscape:groupmode="layer"
     id="layer1">
    <path
       style="color:#000000;fill:#000000;fill-opacity:1;fill-rule:nonzero;stroke:none;stroke-width:0.86687076;marker:none;visibility:visible;display:inline;overflow:visible;enable-background:accumulate"
       d="M 352.53125 186.6875 C 258.91898 186.6875 183.03125 262.57523 183.03125 356.1875 C 183.03125 449.79975 258.91898 525.6875 352.53125 525.6875 C 359.13458 525.6875 365.65597 525.29729 372.0625 524.5625 L 372.0625 527.8125 C 456.47828 537.49442 522.03125 609.17856 522.03125 696.1875 C 522.03125 783.19644 456.47828 854.88058 372.0625 864.5625 L 372.0625 865.6875 C 559.56317 865.6875 711.5625 713.68816 711.5625 526.1875 C 711.5625 338.68683 559.56317 186.6875 372.0625 186.6875 L 372.0625 187.8125 C 365.65597 187.07771 359.13458 186.6875 352.53125 186.6875 z "
       id="path3779" />
    <path
       sodipodi:type="arc"
       style="color:#000000;fill:#ffffff;fill-opacity:1;fill-rule:evenodd;stroke:none;stroke-width:1.33620965000000000;stroke-linecap:butt;stroke-linejoin:miter;stroke-miterlimit:4;stroke-opacity:1;stroke-dasharray:none;stroke-dashoffset:0;marker:none;visibility:visible;display:inline;overflow:visible;enable-background:accumulate"
       id="path2993"
       sodipodi:cx="-421.51477"
       sodipodi:cy="543.63745"
       sodipodi:rx="59.46133"
       sodipodi:ry="59.46133"
       d="m -362.05344,543.63745 a 59.46133,59.46133 0 1 1 -118.92266,0 59.46133,59.46133 0 1 1 118.92266,0 z"
       transform="matrix(0.74838554,0,0,0.74838554,668.00235,-50.662907)" />
    <path
       sodipodi:type="arc"
       style="color:#000000;fill:#000000;fill-opacity:1;fill-rule:evenodd;stroke:none;stroke-width:1.33620965000000000;stroke-linecap:butt;stroke-linejoin:miter;stroke-miterlimit:4;stroke-opacity:1;stroke-dasharray:none;stroke-dashoffset:0;marker:none;visibility:visible;display:inline;overflow:visible;enable-background:accumulate"
       id="path2993-7"
       sodipodi:cx="-421.51477"
       sodipodi:cy="543.63745"
       sodipodi:rx="59.46133"
       sodipodi:ry="59.46133"
       d="m -362.05344,543.63745 a 59.46133,59.46133 0 1 1 -118.92266,0 59.46133,59.46133 0 1 1 118.92266,0 z"
       transform="matrix(0.74838554,0,0,0.74838554,668.00235,289.33709)" />
    <path
       style="opacity:0.86000001000000004;color:#000000;fill:#000000;fill-opacity:1;fill-rule:nonzero;stroke:none;stroke-width:0.86687075999999985;marker:none;visibility:visible;display:inline;overflow:visible;enable-background:accumulate"
       d="M 372.0625 166.1875 C 173.24 166.1875 12.0625 327.36499 12.0625 526.1875 C 12.0625 725.01 173.24 886.1875 372.0625 886.1875 C 570.88501 886.1875 732.0625 725.01 732.0625 526.1875 C 732.0625 327.36499 570.88501 166.1875 372.0625 166.1875 z M 372.0625 186.6875 C 559.56317 186.6875 711.5625 338.68683 711.5625 526.1875 C 711.5625 713.68816 559.56317 865.6875 372.0625 865.6875 C 184.56184 865.6875 32.5625 713.68816 32.5625 526.1875 C 32.5625 338.68683 184.56184 186.6875 372.0625 186.6875 z "
       id="path3783-4" />
  </g>
</svg>
